<?xml version="1.0" encoding="UTF-8"?><svg id="a" xmlns="http://www.w3.org/2000/svg" viewBox="0 0 605.42 123.67"><defs><style>.b{fill:#0d0d0e;stroke-width:0px;}</style></defs><polygon class="b" points="574.01 62.69 603.52 28.91 582.37 28.91 552.03 65.71 552.03 28.91 534.84 28.91 534.84 113.89 552.03 113.89 552.03 88.05 562.99 75.78 585.45 113.89 605.42 113.89 574.01 62.69"/><path class="b" d="m202.71,80.41h21.75v.83c0,1.82-.32,3.79-.95,5.93-.59,2.13-1.66,4.13-3.2,5.98-1.5,1.82-3.54,3.34-6.1,4.56-2.53,1.22-5.71,1.84-9.54,1.84s-7.43-.77-10.31-2.31c-2.88-1.58-5.25-3.65-7.11-6.22-1.86-2.57-3.24-5.53-4.15-8.89-.91-3.36-1.36-6.85-1.36-10.49v-.59c0-3.6.45-7.07,1.36-10.43.91-3.4,2.29-6.38,4.15-8.95,1.86-2.57,4.23-4.62,7.11-6.16,2.88-1.58,6.32-2.37,10.31-2.37,2.53,0,4.82.34,6.87,1.01,2.05.63,3.87,1.52,5.45,2.67,1.62,1.11,3.04,2.45,4.27,4.03,1.22,1.54,2.29,3.22,3.2,5.04l15.05-8.47c-1.42-2.96-3.28-5.65-5.57-8.06-2.29-2.45-4.94-4.52-7.94-6.22-2.96-1.74-6.26-3.06-9.9-3.97-3.59-.95-7.41-1.42-11.44-1.42-6.2,0-11.81,1.15-16.83,3.44-4.98,2.25-9.24,5.35-12.8,9.3-3.52,3.91-6.24,8.53-8.18,13.87-1.9,5.29-2.84,10.98-2.84,17.07s.85,11.83,2.55,17.13c1.74,5.29,4.25,9.92,7.53,13.87,3.32,3.95,7.39,7.05,12.21,9.3,4.82,2.25,10.33,3.38,16.53,3.38,2.65,0,5.14-.28,7.47-.83,2.37-.55,4.54-1.3,6.52-2.25,1.98-.99,3.75-2.15,5.33-3.5,1.58-1.38,2.9-2.9,3.97-4.56v9.96h15.05v-46.58h-38.46v13.1Z"/><path class="b" d="m501.07,81.47c0,3.08-.46,5.77-1.36,8.06-.91,2.25-2.15,4.13-3.73,5.63-1.54,1.46-3.4,2.57-5.57,3.32-2.13.71-4.45,1.07-6.93,1.07s-4.82-.36-6.99-1.07c-2.14-.75-3.99-1.86-5.57-3.32-1.54-1.5-2.77-3.38-3.68-5.63-.91-2.29-1.36-4.98-1.36-8.06V28.79h-17.01v55.23c0,4.74.85,9.03,2.55,12.86,1.74,3.83,4.15,7.09,7.23,9.78,3.08,2.69,6.74,4.76,10.96,6.22,4.23,1.46,8.85,2.19,13.87,2.19s9.64-.73,13.87-2.19c4.23-1.46,7.86-3.54,10.9-6.22,3.08-2.69,5.47-5.95,7.17-9.78,1.74-3.83,2.61-8.12,2.61-12.86V28.79h-16.95v52.68Z"/><path class="b" d="m431.92,96.82c-.99-.99-2.13-1.76-3.44-2.31-1.3-.59-2.69-.89-4.15-.89s-2.86.3-4.21.89c-1.3.55-2.45,1.32-3.44,2.31-.99.95-1.78,2.07-2.37,3.38-.55,1.26-.83,2.63-.83,4.09s.28,2.9.83,4.21c.59,1.3,1.38,2.45,2.37,3.44.99.99,2.14,1.76,3.44,2.31,1.34.55,2.75.83,4.21.83s2.84-.28,4.15-.83c1.31-.55,2.45-1.32,3.44-2.31.99-.99,1.76-2.13,2.31-3.44.59-1.3.89-2.71.89-4.21s-.3-2.82-.89-4.09c-.55-1.3-1.32-2.43-2.31-3.38Z"/><polygon class="b" points="375.98 92.79 375.39 92.79 358.97 28.91 339.71 28.91 363.71 113.89 387.06 113.89 411.06 28.91 392.04 28.91 375.98 92.79"/><path class="b" d="m322.35,40.47c-3.48-3.95-7.72-7.05-12.74-9.3-5.02-2.29-10.69-3.44-17.01-3.44s-12.05,1.15-17.07,3.44c-4.98,2.25-9.22,5.35-12.74,9.3-3.48,3.91-6.14,8.53-8,13.87-1.82,5.29-2.73,10.98-2.73,17.07s.91,11.83,2.73,17.13c1.86,5.29,4.52,9.92,8,13.87,3.52,3.95,7.76,7.05,12.74,9.3,5.02,2.25,10.71,3.38,17.07,3.38s11.99-1.13,17.01-3.38c5.02-2.25,9.26-5.35,12.74-9.3,3.52-3.95,6.18-8.57,8-13.87,1.86-5.29,2.79-11,2.79-17.13s-.93-11.77-2.79-17.07c-1.82-5.33-4.48-9.95-8-13.87Zm-6.93,31.17c0,4.03-.49,7.74-1.48,11.14-.99,3.4-2.45,6.34-4.39,8.83-1.94,2.49-4.33,4.44-7.17,5.87-2.8,1.38-6.06,2.07-9.78,2.07s-6.99-.69-9.84-2.07c-2.84-1.42-5.23-3.38-7.17-5.87-1.9-2.49-3.34-5.43-4.33-8.83-.99-3.4-1.48-7.11-1.48-11.14v-.47c0-3.99.49-7.68,1.48-11.08.99-3.44,2.43-6.4,4.33-8.89,1.94-2.49,4.33-4.42,7.17-5.81,2.84-1.42,6.12-2.13,9.84-2.13s6.97.71,9.78,2.13c2.84,1.38,5.23,3.32,7.17,5.81,1.94,2.49,3.4,5.45,4.39,8.89.99,3.4,1.48,7.09,1.48,11.08v.47Z"/><path class="b" d="m120.51,61.33c3.82-1.57,8.26.3,9.85,4.16,1.59,3.84-.25,8.26-4.07,9.83-3.9,1.61-8.32-.23-9.9-4.08-1.6-3.84.23-8.31,4.13-9.91h0Z"/><path class="b" d="m107.09,41.37c3.82-1.57,8.26.31,9.85,4.16,1.59,3.84-.25,8.26-4.07,9.82-3.9,1.61-8.32-.23-9.9-4.08-1.6-3.84.23-8.31,4.12-9.91Z"/><path class="b" d="m86.83,29.28c3.82-1.57,8.26.3,9.85,4.16,1.59,3.84-.25,8.26-4.07,9.82-3.9,1.61-8.32-.23-9.91-4.08-1.59-3.84.23-8.31,4.13-9.9h0Z"/><path class="b" d="m52.02,10.08l9.56,3.03.03-.03c.26-.35.58-.67.93-.94l.03-.03-3.85-12.11h13.82l-3.85,12.11.03.03c.35.27.66.58.93.94l.03.03,9.56-3.03v14.11l-9.57-5.03-.02.02c-.29.37-.62.7-.99.98l5.5,16.58s.02.04.02.06v.02c.26.83.4,1.71.4,2.62,0,4.49-3.31,8.19-7.62,8.83-.06.01-.13.02-.19.03-.37.05-.74.08-1.12.08s-.75-.03-1.12-.08c-.07,0-.13-.02-.19-.03-4.31-.64-7.62-4.34-7.62-8.83,0-.91.14-1.79.4-2.62s0-.02,0-.02c0-.02.01-.04.02-.06l5.5-16.58c-.37-.28-.71-.61-.99-.98l-.02-.02-9.57,5.03v-14.11h-.02Z"/><path class="b" d="m68.55,70.06c-3.9,1.61-8.32-.23-9.91-4.08-1.59-3.84.23-8.31,4.13-9.9,3.82-1.57,8.26.3,9.85,4.16,1.59,3.84-.25,8.26-4.07,9.82h0Z"/><path class="b" d="m34.44,33.44c1.59-3.86,6.03-5.73,9.85-4.16,3.9,1.6,5.72,6.06,4.13,9.9-1.59,3.85-6.01,5.69-9.91,4.08-3.82-1.57-5.66-5.99-4.07-9.82h0Z"/><path class="b" d="m14.18,45.54c1.59-3.85,6.03-5.73,9.85-4.16,3.9,1.6,5.72,6.06,4.12,9.91-1.59,3.85-6.01,5.69-9.9,4.08-3.82-1.57-5.66-5.99-4.07-9.82Z"/><path class="b" d="m.77,65.5c1.59-3.86,6.03-5.73,9.85-4.16,3.9,1.6,5.72,6.06,4.13,9.91-1.59,3.85-6.01,5.69-9.9,4.08-3.82-1.56-5.66-5.99-4.07-9.83h0Z"/><path class="b" d="m116.18,123.67c-15.29-2.19-32.44-3.41-50.57-3.41s-35.26,1.23-50.54,3.41c-4.34-18.24-9.62-28.69-15.07-36.13l10.27-3.65c-1.02,5.21-1.19,7.64-.04,10.99,1.69-1.66,3.3-4.7,4.55-9.35l4.98,16.57c-3.03-2.09-5.36-3.43-8.03-3.49,4.74,10.2,10.65,12.83,14.49,12.12,4.68-.86,6.83-5.03,6.11-8.57-1.08-5.02-6.22-6.32-8.63-.49-4.6-9.38,3.2-12.3,8.22-9.53-7.71-7.69-8.59-14.53-2.37-22.8,8.67,6.63,8.77,13.19,4.87,22.43,5.06-5.79,12.94-2.68,10.1,6.68-3.65-5.65-8.49-2.1-7.73,3.27.64,4.68,6.82,8.46,14.51,7.79,11.03-1,11.68-8.61,11.96-14.9-2.71-.5-7.59,2.01-11.75,7.86l-1.53-17.57c4.53,4.72,8.64,5.62,13.21,5.76-1.52-4.75-8.51-12.52-8.51-12.52h21.93s-6.99,7.78-8.51,12.52c4.57-.14,8.68-1.04,13.21-5.76l-1.53,17.57c-4.16-5.84-9.04-8.36-11.75-7.86.27,6.3.93,13.91,11.96,14.9,7.69.67,13.87-3.11,14.51-7.79.76-5.37-4.07-8.93-7.73-3.27-2.85-9.36,5.03-12.48,10.1-6.68-3.9-9.24-3.8-15.8,4.87-22.43,6.22,8.27,5.34,15.11-2.37,22.8,5.02-2.78,12.82.15,8.22,9.53-2.4-5.84-7.55-4.53-8.63.49-.72,3.54,1.43,7.72,6.1,8.57,3.83.71,9.75-1.92,14.49-12.12-2.67.06-5,1.41-8.03,3.49l4.97-16.57c1.25,4.65,2.86,7.7,4.55,9.35,1.14-3.35.98-5.78-.04-10.99l10.27,3.65c-5.45,7.44-10.73,17.89-15.07,36.14h0Z"/></svg>